# xmcd
#
# Track frame offsets:
#	150
#	13012
#	30512
#	41997
#	66887
#	87250
#	100527
#	116027
#	132975
#	147667
#	161335
#	173575
#	184200
#	196805
#	209462
#	228535
#	242245
#	255925
#
# Disc length: 3601
#
# Revision: 4
# Processed by: cddbd v1.5.1PL0 Copyright (c) Steve Scherf et al.
# Submitted via: CDex 1.50beta8
# Normalized: r3:TDELIM( - )
#
DISCID=f80e0f12
DTITLE=Various Artist - 18 Blues Masterpieces
DYEAR=2000
DGENRE=Blues
TTITLE0=Muddy waters - Hoochie Coochie Man
TTITLE1=Howlin` Wolf - The Red Rooster
TTITLE2=John Lee Hooker - Boogie Chillen
TTITLE3=B.B. King - The Thrill Is Gone
TTITLE4=Lightnin` Hopkins - Woke Up This Morning
TTITLE5=Elmore James - Dust My Broom
TTITLE6=Big Bill broonzy - Big Bill Blues
TTITLE7=Big Joe Turner - Roll 'Em Pete
TTITLE8=Bessie Smith - Jail House Blues
TTITLE9=T-Bone Walker - Call It Stormy Monday
TTITLE10=Little Walter - Last Night
TTITLE11=Jimmy Reed - Baby What You Want Me To Do
TTITLE12=Memphis Slim - Sassy Mae
TTITLE13=Roosevelt Sykes - Security Blues
TTITLE14=Buddy Guy - First Time I Met The Blues
TTITLE15=Lonnie Johnson - Tomorrow Night
TTITLE16=J.B. Lenoir - Alabama Blues
TTITLE17=Sonny Boy Williamson II - Help Me
EXTD=YEAR: 2000
EXTT0=
EXTT1=
EXTT2=
EXTT3=
EXTT4=
EXTT5=
EXTT6=
EXTT7=
EXTT8=
EXTT9=
EXTT10=
EXTT11=
EXTT12=
EXTT13=
EXTT14=
EXTT15=
EXTT16=
EXTT17=
PLAYORDER=
